HIERARCHY
ROOT Hips
{
	OFFSET 0.00000 0.00000 0.00000
	CHANNELS 6 Xposition Yposition Zposition Zrotation Yrotation Xrotation 
	JOINT LHipJoint
	{
		OFFSET 0 0 0
		CHANNELS 3 Zrotation Yrotation Xrotation
		JOINT LeftHip
		{
			OFFSET 1.57338 -1.94743 0.52196
			CHANNELS 3 Zrotation Yrotation Xrotation
			JOINT LeftKnee
			{
				OFFSET 2.60333 -7.15259 0.00000
				CHANNELS 3 Zrotation Yrotation Xrotation
				JOINT LeftAnkle
				{
					OFFSET 2.77855 -7.63400 0.00000
					CHANNELS 3 Zrotation Yrotation Xrotation
					JOINT LeftToe
					{
						OFFSET 0.19847 -0.54529 2.28466
						CHANNELS 3 Zrotation Yrotation Xrotation
						End Site
						{
							OFFSET 0.00000 -0.00000 1.17993
						}
					}
				}
			}
		}
	}
	JOINT RHipJoint
	{
		OFFSET 0 0 0
		CHANNELS 3 Zrotation Yrotation Xrotation
		JOINT RightHip
		{
			OFFSET -1.61527 -1.94743 0.52196
			CHANNELS 3 Zrotation Yrotation Xrotation
			JOINT RightKnee
			{
				OFFSET -2.53829 -6.97390 0.00000
				CHANNELS 3 Zrotation Yrotation Xrotation
				JOINT RightAnkle
				{
					OFFSET -2.80762 -7.71387 0.00000
					CHANNELS 3 Zrotation Yrotation Xrotation
					JOINT RightToe
					{
						OFFSET -0.30536 -0.83898 2.28801
						CHANNELS 3 Zrotation Yrotation Xrotation
						End Site
						{
							OFFSET -0.00000 -0.00000 1.21323
						}
					}
				}
			}
		}
	}
	JOINT lowerback
	{
		OFFSET 0 0 0
		CHANNELS 3 Zrotation Yrotation Xrotation
		JOINT Chest
		{
			OFFSET -0.04381 1.99497 -0.19778
			CHANNELS 3 Zrotation Yrotation Xrotation
			JOINT Chest2
			{
				OFFSET -0.01959 2.01295 -0.04372
				CHANNELS 3 Zrotation Yrotation Xrotation
				JOINT lowerneck
				{
					OFFSET 0 0 0
					CHANNELS 3 Zrotation Yrotation Xrotation
					JOINT Neck
					{
						OFFSET -0.05459 1.76913 0.09708
						CHANNELS 3 Zrotation Yrotation Xrotation
						JOINT Head
						{
							OFFSET 0.09461 1.77368 -0.11172
							CHANNELS 3 Zrotation Yrotation Xrotation
							End Site
							{
								OFFSET 0.03812 1.78157 -0.04834
							}
						}
					}
				}
				JOINT LeftCollar
				{
					OFFSET 0 0 0
					CHANNELS 3 Zrotation Yrotation Xrotation
					JOINT LeftShoulder
					{
						OFFSET 3.50922 1.24034 -0.28866
CHANNELS 3 Zrotation Xrotation Yrotation
						JOINT LeftElbow
						{
OFFSET 0 -5.401880 0.000000
CHANNELS 3 Zrotation Xrotation Yrotation
							JOINT LeftWrist
							{
OFFSET 0 -3.685590 0.000000
CHANNELS 3 Zrotation Xrotation Yrotation
								JOINT lhand
								{
									OFFSET 0 0 0
CHANNELS 3 Zrotation Xrotation Yrotation
									JOINT LFingers
									{
OFFSET 0 -0.617530 0.000000
CHANNELS 3 Zrotation Xrotation Yrotation
										End Site
										{
OFFSET 0 -0.497870 0.000000
										}
									}
								}
								JOINT LThumb
								{
OFFSET 0 0.000000 0.000000
CHANNELS 3 Zrotation Xrotation Yrotation
									End Site
									{
OFFSET 0 -0.505470 0.505470
									}
								}
							}
						}
					}
				}
				JOINT RightCollar
				{
					OFFSET 0 0 0
					CHANNELS 3 Zrotation Yrotation Xrotation
					JOINT RightShoulder
					{
						OFFSET -2.95373 1.39649 -0.27346
CHANNELS 3 Zrotation Xrotation Yrotation
						JOINT RightElbow
						{
OFFSET 0 -6.106700 -0.000000
CHANNELS 3 Zrotation Xrotation Yrotation
							JOINT RightWrist
							{
OFFSET 0 -3.630520 0.000000
CHANNELS 3 Zrotation Xrotation Yrotation
								JOINT rhand
								{
									OFFSET 0 0 0
CHANNELS 3 Zrotation Xrotation Yrotation
									JOINT RFingers
									{
OFFSET 0 -0.583850 0.000000
CHANNELS 3 Zrotation Xrotation Yrotation
										End Site
										{
OFFSET 0 -0.470710 0.000000
										}
									}
								}
								JOINT RThumb
								{
OFFSET 0 0.000000 0.000000
CHANNELS 3 Zrotation Xrotation Yrotation
									End Site
									{
OFFSET 0 -0.477900 0.477900
									}
								}
							}
						}
					}
				}
			}
		}
	}
}
MOTION
Frames: 12
Frame Time: 0.008333333333333333
0.778363 10.046346 -0.854534 -0.049535 -3.465711 -22.104961 0.000000 0.000000 0.000000 -3.517423 2.109565 -103.636051 35.696439 12.553752 142.279743 -0.041737 -5.507490 6.421419 0.013137 -0.739490 -2.032218 0.000000 0.000000 0.000000 8.687423 -2.464521 -108.323423 -36.504134 -11.457480 146.161309 0.275848 -14.138039 6.241973 -0.755971 -5.552925 15.492585 0.928829 0.471699 40.122990 -0.542283 0.827464 13.073989 -1.358055 0.426911 -4.817088 -6.388554 -1.843892 -18.220837 5.127280 -1.277919 -4.162503 2.760014 -0.396778 1.914870 0.000000 0.000000 0.000000 -23.158961 -81.300850 -77.567658 128.395872 -53.622298 92.539542 34.033830 6.828016 -11.678875 0.000000 0.000000 0.000000 -7.125000 0.000000 0.000000 6.313382 43.889807 0.184050 0.000000 0.000000 0.000000 -29.607907 -80.859582 25.392121 -127.789556 -53.848989 -92.050594 -45.779866 -8.485901 -11.504671 0.000000 0.000000 0.000000 7.125000 0.000000 0.000000 -12.591608 13.982703 -9.410580
0.781510 10.051553 -0.862110 0.102599 -3.488710 -21.955783 0.000000 0.000000 0.000000 -3.760423 2.177985 -103.679165 35.691011 12.560637 142.254738 -0.043428 -5.207856 5.805182 0.000095 0.057946 0.159094 0.000000 0.000000 0.000000 8.417142 -2.283393 -108.526463 -36.488023 -11.481071 146.080038 0.253145 -14.258086 6.707916 -0.823219 -5.789132 16.173797 0.847392 0.461152 40.068360 -0.709402 0.767172 13.278975 -1.467931 0.404785 -4.575161 -6.877532 -2.444986 -16.804218 6.859455 -2.041603 -5.933102 3.381330 -0.737984 1.164093 0.000000 0.000000 0.000000 -25.418545 -81.693037 -83.445389 128.462317 -53.597180 92.592961 37.449749 13.542999 -9.069942 0.000000 0.000000 0.000000 -7.125000 0.000000 0.000000 9.369551 41.167712 0.894605 0.000000 0.000000 0.000000 -29.983712 -81.003671 26.578645 -129.774227 -53.086118 -93.645391 -50.040689 -8.361210 -12.034320 0.000000 0.000000 0.000000 7.125000 0.000000 0.000000 -15.163732 12.081686 -12.095935
0.786876 10.044569 -0.856941 0.177534 -3.381575 -21.905293 0.000000 0.000000 0.000000 -3.834383 1.947218 -103.858464 35.711348 12.534869 142.348542 -0.049193 -5.250358 5.617843 0.013572 -0.697707 -1.917625 0.000000 0.000000 0.000000 8.207947 -2.399697 -108.766275 -36.518985 -11.435719 146.236185 0.237712 -14.128010 6.805390 -0.825632 -5.797384 16.197614 0.668631 0.341457 40.106870 -0.717952 0.550925 13.513009 -1.303236 0.296707 -4.335581 -7.721641 -3.264997 -15.817254 8.288354 -2.994378 -7.251789 3.833795 -1.190138 0.640464 0.000000 0.000000 0.000000 -22.893154 -83.044089 -84.483354 129.634434 -53.141754 93.533548 39.548013 16.807329 -10.239852 0.000000 0.000000 0.000000 -7.125000 0.000000 0.000000 11.389238 42.876462 0.605267 0.000000 0.000000 0.000000 -29.307196 -81.694503 28.613815 -133.650676 -51.411695 -96.710956 -55.685100 -10.084088 -11.769369 0.000000 0.000000 0.000000 7.125000 0.000000 0.000000 -18.635465 10.478778 -15.819143
0.787976 10.046414 -0.835726 -0.007474 -3.587777 -21.717187 0.000000 0.000000 0.000000 -3.686008 2.456213 -104.129008 35.732475 12.508215 142.445641 -0.051837 -5.315544 5.622099 0.013440 -0.704620 -1.936606 0.000000 0.000000 0.000000 8.266314 -1.674091 -108.837649 -36.515895 -11.440253 146.220463 0.254648 -14.575721 7.001815 -0.864638 -5.929136 16.579020 0.598199 0.165277 40.320664 -0.524050 0.318311 13.288161 -0.977883 0.167026 -4.654468 -8.998060 -4.614946 -14.310896 9.793955 -4.606386 -8.950455 4.246001 -1.993390 0.072024 0.000000 0.000000 0.000000 -19.326881 -82.951060 -83.843809 132.201475 -52.067837 95.573216 43.758206 16.796672 -9.747896 0.000000 0.000000 0.000000 -7.125000 0.000000 0.000000 15.251861 42.835059 0.833798 0.000000 0.000000 0.000000 -21.287778 -82.052717 36.971579 -138.831627 -48.745980 -100.686583 -59.426667 -7.476947 -11.170642 0.000000 0.000000 0.000000 7.125000 0.000000 0.000000 -20.957568 9.786412 -18.401134
0.792402 10.053494 -0.811237 0.259975 -3.445282 -21.417375 0.000000 0.000000 0.000000 -4.053796 2.154595 -104.278669 35.732861 12.507628 142.447793 -0.048474 -5.228741 5.612499 0.000600 -0.157436 -0.432662 0.000000 0.000000 0.000000 7.871210 -1.882004 -109.246257 -36.551995 -11.387150 146.403131 0.234799 -14.458384 7.170124 -0.838922 -5.842557 16.328251 0.350420 0.057634 40.153379 -0.543060 0.091397 13.194703 -0.785871 0.050402 -4.712096 -10.672690 -6.653369 -14.304437 12.062921 -7.049810 -9.191109 5.067792 -3.160955 0.396662 0.000000 0.000000 0.000000 -15.219925 -83.000450 -82.135434 134.955878 -50.789996 97.727069 46.351006 19.293412 -7.988318 0.000000 0.000000 0.000000 -7.125000 0.000000 0.000000 17.275681 40.840617 1.834145 0.000000 0.000000 0.000000 -21.644691 -81.810612 36.063025 -144.132792 -45.420985 -104.571991 -61.174741 -8.066306 -12.744204 0.000000 0.000000 0.000000 7.125000 0.000000 0.000000 -21.436469 6.202062 -20.523346
0.792449 10.060042 -0.795407 0.428391 -3.477250 -21.441482 0.000000 0.000000 0.000000 -4.271577 2.266821 -104.089931 35.741640 12.496462 142.488257 -0.045003 -5.032154 5.392858 0.000000 -0.000332 -0.000879 0.000000 0.000000 0.000000 7.681059 -1.901015 -109.207258 -36.557232 -11.379428 146.429505 0.218835 -14.393418 7.332148 -0.825391 -5.796419 16.194856 0.218992 -0.004577 39.916718 -0.573280 -0.039070 13.299465 -0.701265 -0.015623 -4.526725 -11.645819 -7.814229 -14.570633 13.466755 -8.457024 -8.766231 5.532995 -3.817977 0.842941 0.000000 0.000000 0.000000 -11.197620 -82.814063 -80.653849 137.358192 -49.559375 99.572218 47.677201 19.906259 -6.990884 0.000000 0.000000 0.000000 -7.125000 0.000000 0.000000 18.220165 39.631555 2.507810 0.000000 0.000000 0.000000 -19.973244 -81.527779 37.906632 -147.660542 -42.815684 -107.028846 -62.264004 -7.280478 -13.901533 0.000000 0.000000 0.000000 7.125000 0.000000 0.000000 -21.670147 3.568237 -21.940063
0.789161 10.054039 -0.797229 0.491241 -3.488540 -21.313212 0.000000 0.000000 0.000000 -4.165927 2.163643 -104.340704 35.730780 12.510350 142.437895 -0.017114 -4.596599 5.894007 0.014421 0.753313 2.070338 0.000000 0.000000 0.000000 7.582029 -1.833447 -109.490204 -36.570092 -11.360493 146.494537 0.220011 -14.549022 7.461791 -0.863178 -5.924274 16.564995 0.199553 -0.081268 39.566435 -0.594100 -0.142900 13.359405 -0.675061 -0.065876 -4.355008 -12.135351 -8.173043 -14.492310 14.066966 -8.889084 -8.561563 5.757234 -4.017038 1.005300 0.000000 0.000000 0.000000 -13.026585 -82.972546 -84.476610 138.547447 -48.907303 100.473014 48.521068 18.076581 -5.744683 0.000000 0.000000 0.000000 -7.125000 0.000000 0.000000 18.624284 37.970595 3.363428 0.000000 0.000000 0.000000 -19.875380 -81.468020 38.848001 -148.653361 -42.020042 -107.698728 -63.770944 -4.934447 -14.087813 0.000000 0.000000 0.000000 7.125000 0.000000 0.000000 -22.407588 2.202019 -23.420592
0.779543 10.044098 -0.821363 0.377860 -3.605012 -21.573012 0.000000 0.000000 0.000000 -3.965329 2.355532 -104.146922 35.734401 12.505688 142.454823 -0.033285 -5.013796 5.904198 0.017127 -0.841756 -2.313536 0.000000 0.000000 0.000000 7.890654 -1.510677 -109.208345 -36.556444 -11.380709 146.425149 0.244995 -14.983630 7.532723 -0.873940 -5.960177 16.668900 0.046986 -0.259949 40.160415 -0.696090 -0.435101 13.252084 -0.595005 -0.211467 -4.657768 -11.943670 -7.889049 -14.781792 13.824849 -8.572585 -7.709048 5.652291 -3.848375 1.237383 0.000000 0.000000 0.000000 -10.033625 -83.056765 -82.732978 138.454889 -48.959123 100.403202 48.948151 22.153062 -7.488658 0.000000 0.000000 0.000000 -7.125000 0.000000 0.000000 19.504604 40.493498 2.264403 0.000000 0.000000 0.000000 -11.430701 -81.622357 48.584074 -147.888081 -42.636211 -107.183421 -63.974548 1.639677 -12.248032 0.000000 0.000000 0.000000 7.125000 0.000000 0.000000 -23.077230 5.288846 -22.832441
0.770178 10.037092 -0.834006 0.461803 -3.692696 -21.670823 0.000000 0.000000 0.000000 -3.904380 2.410039 -104.130683 35.725982 12.516391 142.416029 -0.040311 -5.145321 5.829442 0.006745 -0.422288 -1.160473 0.000000 0.000000 0.000000 7.952423 -1.388234 -109.174354 -36.540424 -11.404245 146.344337 0.246081 -15.149794 7.675540 -0.847949 -5.873219 16.417083 0.238324 -0.287868 40.100341 -0.900164 -0.414834 13.432709 -0.917284 -0.186725 -4.443324 -12.144175 -7.954357 -14.495702 13.877809 -8.653989 -7.809923 5.703426 -3.894763 1.186473 0.000000 0.000000 0.000000 -13.506536 -83.519701 -86.541721 138.235363 -49.081305 100.237472 48.467490 19.711229 -6.312869 0.000000 0.000000 0.000000 -7.125000 0.000000 0.000000 18.735856 38.770911 3.000208 0.000000 0.000000 0.000000 -12.574543 -81.830845 46.817110 -147.974375 -42.567557 -107.241873 -64.706722 -1.462910 -13.888610 0.000000 0.000000 0.000000 7.125000 0.000000 0.000000 -22.953261 1.845869 -24.258600
0.764803 10.032183 -0.841129 0.633618 -3.869137 -21.802232 0.000000 0.000000 0.000000 -3.993092 2.763615 -104.047016 35.742222 12.495755 142.490910 -0.049752 -5.247437 5.586957 0.004093 -0.406936 -1.118183 0.000000 0.000000 0.000000 7.955173 -1.216818 -109.071282 -36.538011 -11.407784 146.332353 0.241957 -15.223174 7.799599 -0.805069 -5.726343 15.992497 0.147082 -0.199182 39.852454 -0.968421 -0.347514 13.807137 -0.968066 -0.153961 -3.954086 -12.425883 -7.933441 -14.328699 13.861362 -8.571144 -8.235407 5.765365 -3.856547 1.035259 0.000000 0.000000 0.000000 -15.088369 -84.019149 -88.046475 137.974609 -49.225152 100.040200 48.249549 18.897027 -6.282359 0.000000 0.000000 0.000000 -7.125000 0.000000 0.000000 18.536146 38.703914 2.997267 0.000000 0.000000 0.000000 -14.600988 -82.085777 44.428997 -148.361713 -42.256964 -107.503092 -65.281176 2.266891 -13.349517 0.000000 0.000000 0.000000 7.125000 0.000000 0.000000 -23.411783 2.355326 -24.609837
0.766100 10.027463 -0.843298 0.656371 -3.936110 -21.993754 0.000000 0.000000 0.000000 -4.057481 2.924194 -103.778256 35.746868 12.489898 142.512305 -0.052305 -5.264448 5.493957 0.002200 0.302116 0.830218 0.000000 0.000000 0.000000 7.858196 -1.281354 -108.963821 -36.536971 -11.409327 146.326822 0.230029 -15.309130 8.034875 -0.855673 -5.899245 16.492377 0.207812 -0.241747 39.724513 -1.064805 -0.385419 14.087451 -1.088154 -0.165604 -3.608040 -12.702187 -7.751713 -13.006942 14.075387 -8.406110 -8.681707 5.936032 -3.815885 0.711352 0.000000 0.000000 0.000000 -14.873927 -84.358344 -88.638162 138.206587 -49.097221 100.215756 49.052970 19.477776 -6.831610 0.000000 0.000000 0.000000 -7.125000 0.000000 0.000000 19.403472 39.574957 2.713700 0.000000 0.000000 0.000000 -18.172488 -82.503630 40.227050 -149.138769 -41.620233 -108.022433 -65.136142 7.666390 -11.885465 0.000000 0.000000 0.000000 7.125000 0.000000 0.000000 -23.792890 5.128876 -23.769489
0.771105 9.957833 -0.775538 0.586473 -3.980641 -21.987849 0.000000 0.000000 0.000000 -3.800518 3.055260 -104.462389 35.910235 12.277851 143.276515 -0.054200 -5.248046 5.366676 0.000100 0.059176 0.162666 0.000000 0.000000 0.000000 7.679871 -1.087474 -109.712263 -36.676311 -11.200293 147.040281 0.216207 -15.792045 8.646295 -0.866748 -5.936217 16.599406 0.331218 -0.322552 39.422134 -1.165320 -0.446741 14.481249 -1.237788 -0.184995 -3.084917 -12.658938 -7.663398 -12.306957 13.774670 -8.420716 -8.120368 5.840080 -3.847775 0.750905 0.000000 0.000000 0.000000 -14.495855 -85.173117 -88.718927 138.236922 -49.080413 100.238703 50.033354 21.256572 -7.279431 0.000000 0.000000 0.000000 -7.125000 0.000000 0.000000 20.424334 40.343902 2.462833 0.000000 0.000000 0.000000 -17.595486 -83.187245 40.835411 -149.644170 -41.196426 -108.356715 -65.687766 5.933318 -13.250229 0.000000 0.000000 0.000000 7.125000 0.000000 0.000000 -23.650284 2.212962 -24.977828
